<!DOCTYPE svg PUBLIC "-//W3C//DTD SVG 20010904//EN" "http://www.w3.org/TR/2001/REC-SVG-20010904/DTD/svg10.dtd">
<svg version="1.0" xmlns="http://www.w3.org/2000/svg" width="320px" height="320px" viewBox="0 0 3200 3200" preserveAspectRatio="xMidYMid meet">
<g id="layer1" fill="#000000" stroke="none">
 <path d="M1284 2560 c-12 -4 -31 -21 -43 -36 -20 -26 -21 -36 -21 -318 l0 -291 -122 -121 c-68 -67 -181 -165 -253 -219 -71 -54 -156 -119 -188 -144 -56 -43 -60 -45 -73 -27 -13 18 -9 22 36 53 32 21 50 41 50 53 0 23 -123 205 -144 213 -8 3 -97 -49 -203 -120 -186 -125 -233 -159 -233 -174 0 -4 30 -52 68 -106 46 -67 75 -99 89 -101 13 -2 42 10 66 27 l44 30 110 -162 c60 -89 112 -167 116 -174 4 -6 -13 -26 -43 -47 -27 -20 -50 -43 -50 -52 0 -30 133 -214 155 -214 21 0 420 274 423 291 4 22 -129 213 -150 217 -10 2 -38 -11 -64 -28 -43 -30 -58 -31 -66 -3 -2 7 126 88 287 184 l290 171 43 -11 c55 -14 340 -14 397 0 l43 11 284 -167 c155 -92 286 -170 291 -174 4 -4 1 -15 -6 -26 -13 -17 -16 -17 -61 14 -26 18 -54 31 -64 29 -24 -4 -155 -200 -147 -220 4 -9 99 -79 211 -155 167 -112 208 -136 222 -127 24 15 141 185 142 207 0 9 -22 33 -50 53 -28 20 -48 40 -45 44 60 97 229 334 237 332 6 -1 25 -14 44 -28 52 -40 70 -31 141 71 35 50 63 100 63 112 0 26 -6 30 -238 186 -105 71 -178 114 -187 110 -21 -7 -145 -190 -145 -213 0 -9 22 -33 50 -52 44 -31 48 -37 37 -52 -12 -17 -32 -4 -223 142 -143 109 -242 193 -311 266 l-103 106 0 294 0 294 -35 31 -36 31 -307 -1 c-169 0 -317 -4 -328 -9z"/>
 <path d="M1540 1346 c-101 -21 -191 -92 -241 -188 -17 -32 -24 -66 -27 -130 -4 -76 -1 -92 21 -141 48 -105 131 -176 239 -203 117 -30 226 5 317 101 73 78 95 131 95 230 -1 99 -23 154 -94 229 -84 89 -197 126 -310 102z"/>
 </g>

</svg>