<!DOCTYPE svg PUBLIC "-//W3C//DTD SVG 20010904//EN" "http://www.w3.org/TR/2001/REC-SVG-20010904/DTD/svg10.dtd">
<svg version="1.0" xmlns="http://www.w3.org/2000/svg" width="320px" height="320px" viewBox="0 0 3200 3200" preserveAspectRatio="xMidYMid meet">
<g id="layer1" fill="#000000" stroke="none">
 <path d="M1435 3091 c-16 -10 -40 -29 -53 -43 -33 -36 -295 -773 -287 -809 4 -18 76 -95 211 -229 l204 -201 -105 -151 c-118 -170 -152 -245 -184 -407 -32 -157 -26 -450 9 -485 11 -11 563 -125 605 -125 26 0 65 34 264 228 192 188 234 233 234 256 0 20 -19 45 -74 101 -41 41 -84 77 -97 80 -29 8 -38 1 -221 -156 l-154 -133 -41 11 c-23 6 -54 15 -69 21 l-28 11 22 33 c13 17 62 85 109 149 47 65 112 155 145 200 33 46 239 331 458 633 220 303 406 564 415 581 20 43 9 95 -27 132 -16 16 -61 47 -99 70 -87 52 -134 56 -182 15 -24 -19 -462 -509 -651 -727 -5 -5 -63 47 -132 119 l-123 129 33 111 c140 457 134 435 123 475 -12 46 -51 95 -91 115 -43 23 -176 20 -214 -4z"/>
 <path d="M865 1574 c-55 -48 -140 -123 -190 -168 -49 -44 -110 -99 -135 -120 -114 -100 -160 -151 -160 -176 0 -29 116 -164 150 -175 27 -9 50 6 179 114 179 151 194 162 202 154 4 -5 42 -75 84 -156 43 -81 82 -146 89 -144 7 2 10 26 8 68 -7 134 28 362 75 487 l16 43 -79 80 c-105 105 -108 105 -239 -7z"/>
 <path d="M849 698 c-19 -5 -57 -26 -85 -46 -122 -92 -164 -243 -105 -377 22 -50 116 -139 173 -165 54 -25 156 -26 224 -3 75 25 167 122 189 198 44 151 -24 303 -167 375 -51 25 -72 30 -127 29 -36 -1 -82 -5 -102 -11z"/>
 </g>

</svg>