<!DOCTYPE svg PUBLIC "-//W3C//DTD SVG 20010904//EN" "http://www.w3.org/TR/2001/REC-SVG-20010904/DTD/svg10.dtd">
<svg version="1.0" xmlns="http://www.w3.org/2000/svg" width="320px" height="320px" viewBox="0 0 3200 3200" preserveAspectRatio="xMidYMid meet">
<g id="layer1" fill="#000000" stroke="none">
 <path d="M909 2953 c-79 -82 -295 -305 -479 -496 -291 -303 -335 -353 -338 -383 -4 -46 15 -70 163 -208 170 -158 152 -160 338 32 321 330 812 844 820 857 16 30 -24 88 -144 203 -67 64 -131 122 -143 129 -51 29 -66 20 -217 -134z"/>
 <path d="M1755 2664 c-122 -26 -147 -26 -266 2 -24 5 -67 -37 -490 -476 -255 -266 -465 -486 -467 -490 -5 -13 594 -935 608 -935 12 0 14 22 12 120 -12 462 195 850 559 1049 122 67 344 135 441 136 20 0 40 5 44 12 5 7 -31 48 -94 108 -102 97 -107 104 -96 134 16 43 54 17 255 -176 110 -106 210 -198 222 -205 30 -17 102 -16 136 1 42 22 89 81 97 122 14 76 -3 100 -210 299 -217 209 -274 252 -389 290 -117 38 -213 41 -362 9z"/>
 <path d="M2120 1994 c-123 -21 -212 -49 -325 -104 -357 -175 -566 -527 -568 -960 -2 -256 61 -471 186 -635 111 -145 232 -202 407 -192 251 15 519 173 826 488 180 186 294 342 379 522 68 144 88 228 84 361 -4 102 -7 117 -37 178 -54 111 -184 225 -305 269 -34 12 -39 11 -59 -9 -36 -33 -92 -52 -158 -52 -79 0 -118 17 -200 90 -77 68 -80 69 -230 44z"/>
 </g>

</svg>