<!DOCTYPE svg PUBLIC "-//W3C//DTD SVG 20010904//EN" "http://www.w3.org/TR/2001/REC-SVG-20010904/DTD/svg10.dtd">
<svg version="1.0" xmlns="http://www.w3.org/2000/svg" width="320px" height="320px" viewBox="0 0 3200 3200" preserveAspectRatio="xMidYMid meet">
<g id="layer1" fill="#000000" stroke="none">
 <path d="M1400 2860 c-148 -21 -378 -106 -482 -178 -65 -46 -108 -122 -108 -191 0 -42 33 -236 136 -801 20 -107 41 -201 47 -209 18 -21 215 -7 238 17 13 13 24 92 52 369 19 193 38 357 42 362 4 7 70 11 185 11 146 0 179 -3 183 -15 4 -8 -30 -93 -73 -189 -44 -96 -80 -180 -80 -186 0 -6 32 -120 71 -253 39 -133 89 -305 111 -382 59 -201 87 -225 222 -186 89 26 126 60 126 114 0 22 -34 183 -75 359 -41 175 -75 323 -75 329 0 5 83 130 184 277 101 147 191 282 201 301 58 115 -1 278 -123 340 -47 24 -195 64 -337 91 -125 24 -346 34 -445 20z"/>
 <path d="M2427 2358 c-4 -13 -59 -100 -123 -193 -107 -157 -115 -171 -102 -192 15 -25 223 -238 253 -259 11 -8 36 -14 56 -14 39 0 34 -3 420 277 87 62 160 120 163 129 3 9 6 36 6 60 0 40 -5 50 -53 99 -77 80 -89 78 -270 -40 -80 -52 -152 -95 -160 -95 -9 0 -47 53 -90 122 -41 67 -79 124 -84 125 -6 2 -13 -7 -16 -19z"/>
 <path d="M331 2324 c-91 -33 -158 -91 -203 -177 -19 -35 -23 -58 -23 -142 0 -86 3 -107 24 -147 35 -68 96 -126 169 -161 58 -27 70 -29 150 -25 64 3 98 10 130 27 66 34 128 97 159 160 24 48 28 68 28 141 0 102 -28 173 -95 240 -85 85 -235 122 -339 84z"/>
 <path d="M955 1375 c-183 -51 -343 -200 -405 -378 -30 -87 -38 -232 -16 -317 73 -291 364 -494 644 -451 100 16 156 36 239 87 167 104 273 295 273 494 0 267 -179 496 -443 566 -65 17 -226 17 -292 -1z m308 -188 c70 -32 125 -74 167 -128 l32 -39 -72 50 c-80 55 -200 104 -296 123 -35 6 -64 16 -64 21 0 4 39 7 88 4 67 -3 100 -10 145 -31z m-158 -82 c136 -35 315 -145 379 -232 27 -38 31 -49 28 -98 l-4 -56 -62 58 c-154 144 -381 245 -591 261 l-89 7 29 33 c49 53 167 64 310 27z m-99 -180 c115 -33 232 -90 314 -153 66 -50 150 -134 150 -150 0 -5 -14 -28 -31 -52 l-31 -42 -31 30 c-143 134 -399 246 -598 259 l-85 6 7 46 c4 25 8 52 8 59 2 39 155 38 297 -3z m-182 -200 c69 -8 188 -42 269 -78 70 -31 183 -106 222 -147 l28 -29 -64 -31 c-75 -35 -85 -36 -99 -10 -17 32 -112 98 -181 126 -44 18 -92 28 -154 33 l-90 6 -21 45 c-12 25 -24 58 -28 73 -6 27 -5 28 26 23 18 -3 59 -8 92 -11z m153 -255 c23 -10 59 -30 80 -45 l38 -27 -50 7 c-54 7 -155 50 -195 83 l-25 20 55 -10 c30 -5 74 -18 97 -28z"/>
 </g>

</svg>