<!DOCTYPE svg PUBLIC "-//W3C//DTD SVG 20010904//EN" "http://www.w3.org/TR/2001/REC-SVG-20010904/DTD/svg10.dtd">
<svg version="1.0" xmlns="http://www.w3.org/2000/svg" width="320px" height="320px" viewBox="0 0 3200 3200" preserveAspectRatio="xMidYMid meet">
<g id="layer1" fill="#000000" stroke="none">
 <path d="M125 3085 c-27 -26 -33 -72 -15 -106 28 -51 -41 -49 1490 -49 1248 0 1425 2 1450 15 57 30 68 94 22 138 l-28 27 -1448 0 -1447 0 -24 -25z"/>
 <path d="M2176 2819 c-15 -12 -31 -31 -36 -43 -4 -12 -25 -208 -45 -436 -21 -228 -42 -419 -46 -424 -23 -26 -219 64 -286 131 l-43 42 0 231 c0 210 -2 234 -20 269 -23 47 -60 77 -110 92 -36 11 -206 -30 -1155 -282 -94 -25 -115 -35 -143 -64 -38 -41 -42 -83 -13 -131 38 -63 34 -63 539 0 251 31 461 56 466 56 13 0 -4 -301 -19 -330 -7 -14 -21 -33 -31 -42 -11 -9 -149 -77 -309 -151 -454 -210 -441 -204 -463 -240 -19 -30 -20 -56 -23 -490 l-4 -459 28 -24 c37 -31 86 -32 115 -1 18 19 30 76 77 357 31 184 61 340 68 347 7 7 99 42 204 78 l193 66 67 -21 c184 -58 348 -26 497 95 l55 45 93 -36 c117 -44 287 -129 370 -184 34 -24 103 -76 151 -117 l88 -74 63 45 c135 96 206 212 214 348 4 69 2 84 -22 132 -15 30 -43 69 -63 87 -46 40 -150 89 -204 96 -22 3 -42 11 -44 17 -2 6 -11 216 -20 466 -9 250 -20 472 -26 492 -19 73 -105 103 -163 57z"/>
 <path d="M2504 2631 c-42 -25 -51 -55 -64 -201 -6 -69 -20 -221 -31 -339 -11 -118 -18 -220 -15 -227 3 -7 22 -16 43 -20 62 -11 145 -44 198 -80 27 -18 53 -30 57 -26 7 7 3 132 -20 676 l-8 168 -37 34 c-42 39 -77 43 -123 15z"/>
 <path d="M2467 970 c-179 -30 -347 -219 -347 -389 l0 -48 -39 -7 c-79 -12 -134 -85 -134 -176 0 -92 50 -180 132 -232 36 -22 56 -28 103 -28 50 0 62 4 92 31 19 16 38 39 41 49 6 17 9 17 63 -8 51 -24 69 -27 167 -27 101 0 115 2 168 28 174 86 279 275 248 449 -31 177 -175 325 -351 358 -59 11 -74 11 -143 0z"/>
 </g>

</svg>