<!DOCTYPE svg PUBLIC "-//W3C//DTD SVG 20010904//EN" "http://www.w3.org/TR/2001/REC-SVG-20010904/DTD/svg10.dtd">
<svg version="1.0" xmlns="http://www.w3.org/2000/svg" width="320px" height="320px" viewBox="0 0 3200 3200" preserveAspectRatio="xMidYMid meet">
<g id="layer1" fill="#000000" stroke="none">
 <path d="M1415 3093 c-154 -32 -295 -108 -418 -223 -150 -140 -226 -271 -273 -465 -25 -101 -22 -296 4 -395 l20 -75 -47 -54 c-135 -156 -220 -285 -305 -461 -87 -181 -132 -311 -113 -325 24 -17 464 -148 479 -142 8 3 27 40 43 84 54 148 133 297 218 410 l39 53 44 -31 c132 -90 282 -139 455 -146 196 -9 366 35 512 131 l68 44 50 -71 c92 -132 136 -220 196 -397 14 -41 29 -78 32 -82 7 -9 490 137 505 152 6 6 5 18 -2 32 -6 13 -32 77 -57 143 -84 216 -206 423 -343 581 -51 60 -67 85 -61 96 5 9 16 58 25 109 62 356 -93 706 -404 910 -81 54 -204 104 -302 125 -84 18 -276 16 -365 -3z m575 -350 c62 -36 137 -117 183 -194 51 -88 49 -93 -24 -66 -46 16 -65 29 -76 52 -31 59 -98 151 -152 209 l-56 58 40 -16 c22 -10 60 -29 85 -43z m213 -590 c33 -12 46 -21 43 -32 -3 -9 -10 -35 -16 -59 -7 -27 -16 -41 -23 -38 -7 2 -28 10 -48 17 -35 11 -36 13 -28 43 5 17 9 43 9 58 0 33 1 33 63 11z m-83 -297 c0 -21 -137 -136 -161 -136 -5 0 7 21 27 47 19 25 45 63 57 83 19 35 23 37 49 28 15 -6 28 -15 28 -22z"/>
 <path d="M2688 911 c-81 -25 -151 -51 -156 -56 -5 -6 -15 -37 -23 -70 -36 -157 -193 -288 -409 -341 -42 -10 -161 -13 -496 -14 -409 0 -446 1 -519 20 -177 45 -315 145 -375 271 -16 35 -30 76 -30 90 0 14 -6 32 -13 41 -14 17 -289 101 -315 96 -15 -3 -17 -16 -15 -99 2 -79 8 -111 34 -184 102 -282 382 -502 713 -561 122 -21 931 -20 1046 2 156 29 330 111 458 214 159 128 269 348 273 545 1 70 -4 96 -19 94 -4 -1 -73 -22 -154 -48z"/>
 </g>

</svg>