<!DOCTYPE svg PUBLIC "-//W3C//DTD SVG 20010904//EN" "http://www.w3.org/TR/2001/REC-SVG-20010904/DTD/svg10.dtd">
<svg version="1.0" xmlns="http://www.w3.org/2000/svg" width="320px" height="320px" viewBox="0 0 3200 3200" preserveAspectRatio="xMidYMid meet">
<g id="layer1" fill="#000000" stroke="none">
 <path d="M625 2874 c-250 -39 -457 -226 -523 -474 -9 -32 -9 -278 0 -310 30 -114 82 -203 167 -288 77 -78 167 -134 266 -165 101 -31 282 -30 375 3 120 42 162 70 255 164 143 146 190 266 184 470 -3 87 -13 141 -37 199 -7 16 -12 30 -12 33 0 21 -95 146 -155 203 -117 111 -233 159 -394 166 -53 2 -109 1 -126 -1z m278 -248 c95 -45 170 -125 207 -218 21 -52 25 -80 25 -163 0 -83 -4 -111 -25 -163 -37 -93 -112 -172 -208 -220 -74 -36 -81 -37 -182 -37 -92 1 -112 4 -163 27 -118 55 -195 134 -234 242 -81 225 29 469 247 548 71 26 80 27 171 24 75 -3 96 -8 162 -40z"/>
 <path d="M2365 2870 c-118 -21 -217 -73 -310 -161 -60 -57 -155 -182 -155 -203 0 -3 -5 -17 -12 -33 -24 -58 -34 -111 -37 -198 -3 -93 14 -220 31 -242 6 -7 8 -13 5 -13 -8 0 50 -106 82 -150 39 -54 159 -158 210 -184 110 -55 170 -69 296 -70 97 -1 133 3 190 21 99 31 189 87 266 165 85 85 137 174 167 288 9 32 9 278 0 310 -58 218 -224 390 -438 454 -66 20 -225 29 -295 16z m265 -226 c224 -89 329 -324 247 -550 -24 -65 -84 -148 -132 -183 -87 -63 -151 -84 -250 -85 -106 -1 -130 4 -212 44 -81 40 -159 126 -193 212 -21 52 -25 80 -25 163 0 128 26 200 103 286 53 58 155 119 222 132 50 11 195 -1 240 -19z"/>
 <path d="M1528 2462 c-21 -9 -49 -32 -63 -51 l-25 -35 0 -272 0 -272 -202 -113 c-112 -62 -223 -123 -248 -137 -58 -31 -87 -58 -111 -104 -25 -48 -26 -148 -2 -186 24 -39 533 -551 565 -568 16 -8 55 -14 96 -14 97 0 130 26 231 183 44 67 85 129 93 137 7 8 13 17 13 21 0 3 17 33 38 67 l38 62 207 0 207 0 38 31 c32 26 37 36 37 73 0 33 -6 48 -27 68 -46 44 -71 48 -314 48 -263 0 -280 -4 -328 -72 -17 -24 -36 -50 -43 -58 -7 -8 -13 -17 -13 -20 -2 -14 -35 -67 -54 -84 -11 -10 -18 -23 -15 -27 3 -5 0 -9 -6 -9 -12 0 -260 238 -260 250 0 4 63 39 140 79 106 55 149 83 179 117 l40 46 1 377 c0 208 -3 381 -7 385 -5 4 -8 11 -8 15 0 13 -59 59 -89 71 -38 14 -65 12 -108 -8z"/>
 <path d="M1799 783 c-58 -30 -125 -107 -129 -149 -7 -77 -2 -137 13 -161 5 -7 5 -13 0 -13 -4 0 17 -25 47 -55 66 -67 126 -90 207 -82 127 13 233 136 221 255 -7 65 -10 72 -38 113 -80 115 -204 150 -321 92z"/>
 </g>

</svg>