<!DOCTYPE svg PUBLIC "-//W3C//DTD SVG 20010904//EN" "http://www.w3.org/TR/2001/REC-SVG-20010904/DTD/svg10.dtd">
<svg version="1.0" xmlns="http://www.w3.org/2000/svg" width="320px" height="320px" viewBox="0 0 3200 3200" preserveAspectRatio="xMidYMid meet">
<g id="layer1" fill="#040707" stroke="none">
 <path d="M1420 3083 c-26 -24 -41 -61 -100 -243 -37 -118 -105 -328 -149 -466 -45 -139 -81 -262 -81 -274 0 -38 32 -91 69 -116 32 -20 81 -30 351 -69 172 -25 317 -45 321 -45 4 0 -56 -115 -134 -255 l-142 -255 -432 0 -433 0 -30 -27 c-28 -26 -32 -36 -41 -121 -11 -102 -5 -125 44 -156 22 -15 1110 -166 1193 -166 26 0 53 8 75 23 22 15 105 126 236 317 438 638 428 619 422 763 -5 111 -44 191 -133 275 -109 101 -128 106 -463 110 l-282 3 5 42 c3 23 18 166 34 317 26 253 27 278 13 308 -25 52 -56 62 -192 62 -118 0 -121 -1 -151 -27z"/>
 <path d="M1400 748 c-67 -26 -156 -111 -190 -183 -19 -40 -24 -67 -24 -135 -1 -73 3 -93 27 -142 37 -75 129 -160 198 -183 80 -27 211 -18 273 19 63 37 121 98 154 161 22 43 26 63 27 140 0 79 -4 97 -28 146 -31 64 -103 136 -168 170 -65 33 -194 37 -269 7z"/>
 </g>

</svg>